<svg width="52" height="52" viewBox="0 0 52 52" fill="none" xmlns="http://www.w3.org/2000/svg">
<rect width="52" height="52" rx="8" fill="black"/>
<g clip-path="url(#clip0_63_561)">
<path d="M23.8517 24.2668C23.9316 24.1034 24.0001 23.9867 24.0686 23.8584C24.7105 22.6714 24.9208 21.2905 24.6622 19.9602C24.1257 17.0424 21.7056 15.0117 18.7832 15H10.0731C9.21698 15 9.00009 15.2218 9.00009 16.0854V35.6578C9.00009 36.5215 9.22838 36.7549 10.0617 36.7549H19.4567C19.899 36.7552 20.341 36.7318 20.7809 36.6849C24.491 36.2531 27.2079 32.4833 26.5458 28.7252C26.2261 26.8812 25.3243 25.4223 23.8517 24.2668ZM31.8425 29.4488H42.8471C43.0187 29.453 43.1903 29.4452 43.3608 29.4255C43.7261 29.3671 44.0457 29.0286 44.0001 28.6668C43.9088 27.8499 43.8631 27.0095 43.669 26.2159C42.459 21.4308 37.6416 18.7814 33.1668 20.4154C29.0572 21.921 26.8083 26.7528 28.1896 31.1294C29.4795 35.2493 33.3951 37.6769 37.4476 36.8366C39.9476 36.3231 41.7626 34.8292 42.9841 32.565C43.3037 31.9581 43.2124 31.783 42.5503 31.783C41.443 31.783 40.3243 31.7947 39.217 31.7714C38.9066 31.7639 38.605 31.8764 38.3722 32.0865C37.2078 33.0668 35.8722 33.2536 34.4909 32.6934C33.1097 32.1332 32.2535 31.0127 31.8425 29.4488ZM35.5983 15.8637H32.1394C31.6257 15.8637 31.4202 16.0737 31.4088 16.5989C31.3973 17.1241 31.3973 17.6727 31.4088 18.2212C31.4202 18.7698 31.6257 18.9332 32.1165 18.9332H39.1257C39.5937 18.9332 39.8106 18.7114 39.8106 18.2446C39.8106 17.7777 39.822 17.1592 39.8106 16.6223C39.7992 16.0854 39.6051 15.8637 39.0572 15.8637H35.5983Z" fill="white"/>
<path d="M23.8517 24.2668C25.3243 25.4223 26.2261 26.8812 26.5457 28.7135C27.2078 32.4716 24.491 36.2414 20.7809 36.6732C20.341 36.7201 19.899 36.7435 19.4567 36.7432H10.0617C9.22838 36.7432 9.00009 36.5098 9.00009 35.6462V16.0854C9.00009 15.2218 9.21698 15 10.0731 15H18.7832C21.7056 15.0117 24.1257 17.0424 24.6622 19.9602C24.9208 21.2905 24.7105 22.6714 24.0686 23.8584C24.0001 23.9867 23.9316 24.1034 23.8517 24.2668ZM12.9613 32.74L13.2581 32.7634H19.8791C20.0936 32.7677 20.308 32.7481 20.5183 32.705C21.195 32.5628 21.7958 32.1686 22.2041 31.599C22.6124 31.0293 22.7991 30.3249 22.728 29.6224C22.6569 28.9199 22.333 28.2695 21.8192 27.7975C21.3054 27.3254 20.6383 27.0654 19.9476 27.0679H13.2809C13.1736 27.0777 13.0669 27.0933 12.9613 27.1146V32.74ZM12.9613 22.948C15.0275 22.948 17.048 22.9714 19.0686 22.9247C19.4225 22.9247 19.8106 22.6912 20.096 22.4695C20.3995 22.2208 20.6175 21.8795 20.7181 21.4953C20.8187 21.1112 20.7967 20.7042 20.6553 20.3337C20.52 19.9474 20.2703 19.6139 19.9408 19.3796C19.6114 19.1454 19.2187 19.0219 18.8174 19.0265C16.9453 19.0149 15.0846 19.0265 13.2124 19.0265L12.9613 19.0499V22.948Z" fill="white"/>
<path d="M31.8425 29.4489C32.2534 31.0128 33.0753 32.1332 34.4909 32.6934C35.9064 33.2536 37.2078 33.0669 38.3721 32.0865C38.6049 31.8765 38.9066 31.764 39.2169 31.7714C40.3242 31.7948 41.4429 31.7831 42.5502 31.7831C43.2123 31.7831 43.3037 31.9582 42.984 32.5651C41.7626 34.8292 39.9475 36.3231 37.4475 36.8367C33.395 37.677 29.4795 35.2494 28.1895 31.1295C26.8082 26.7529 29.0571 21.921 33.1667 20.4154C37.6416 18.7815 42.4589 21.4308 43.669 26.216C43.863 27.0096 43.9087 27.8499 44 28.6669C44.0457 29.0287 43.726 29.3672 43.3607 29.4255C43.1902 29.4452 43.0186 29.453 42.8471 29.4489H31.8425ZM32.3904 25.9709H39.3082C38.4635 24.6754 37.3448 23.9518 35.8722 23.9635C34.3996 23.9751 33.2694 24.6987 32.3904 25.9709Z" fill="white"/>
<path d="M35.5982 15.8638H39.0571C39.605 15.8638 39.8105 16.0622 39.8105 16.6224C39.8105 17.1826 39.8219 17.7078 39.8105 18.2447C39.7991 18.7815 39.5936 18.9333 39.1256 18.9333H32.1165C31.6256 18.9333 31.4201 18.7232 31.4087 18.2213C31.3973 17.7195 31.3973 17.1359 31.4087 16.599C31.4201 16.0622 31.6256 15.8638 32.1393 15.8638H35.5982Z" fill="white"/>
<path d="M12.9612 32.7399V27.0911C13.0669 27.0699 13.1736 27.0543 13.2808 27.0445H19.9475C20.6383 27.0419 21.3053 27.302 21.8191 27.774C22.3329 28.2461 22.6568 28.8965 22.7279 29.5989C22.7991 30.3014 22.6123 31.0059 22.204 31.5755C21.7957 32.1452 21.1949 32.5394 20.5183 32.6816C20.3079 32.7247 20.0935 32.7443 19.879 32.7399H13.258H12.9612Z" fill="black"/>
<path d="M12.9612 22.9479V19.0498L13.2123 19.0264C15.0845 19.0264 16.9452 19.0148 18.8174 19.0264C19.2186 19.0218 19.6113 19.1453 19.9407 19.3796C20.2702 19.6138 20.5199 19.9473 20.6552 20.3336C20.7966 20.7041 20.8186 21.1111 20.718 21.4952C20.6174 21.8794 20.3994 22.2207 20.0959 22.4694C19.8105 22.6911 19.4224 22.9246 19.0685 22.9246C17.0479 22.9713 15.0274 22.9479 12.9612 22.9479Z" fill="black"/>
<path d="M32.3904 25.9708C33.2694 24.6987 34.3881 23.9634 35.8721 23.9634C37.3562 23.9634 38.4635 24.6753 39.3082 25.9708H32.3904Z" fill="black"/>
</g>
<defs>
<clipPath id="clip0_63_561">
<rect width="35" height="22" fill="white" transform="translate(9 15)"/>
</clipPath>
</defs>
</svg>
