<svg width="215" height="217" viewBox="0 0 215 217" fill="none" xmlns="http://www.w3.org/2000/svg">
<g clip-path="url(#clip0_54_652)">
<path d="M2.17985 97.0727C2.11049 97.5096 2.15084 97.957 2.29723 98.3743C2.44363 98.7916 2.69146 99.1656 3.01825 99.4625C3.72251 100.068 4.69506 100.439 6.00297 100.573C8.71939 100.843 10.1614 99.9674 10.3627 97.9142C10.4499 96.8478 10.3361 95.7744 10.0273 94.7503L12.2071 94.9522C12.5205 96.0678 12.6117 97.2345 12.4754 98.3854C12.3078 100.136 11.637 101.448 10.4633 102.29C9.2895 103.131 7.71331 103.434 5.70114 103.232C4.56146 103.142 3.45879 102.785 2.48168 102.189C1.5979 101.675 0.894802 100.899 0.469509 99.9674C0.0472087 98.9939 -0.103488 97.9236 0.0335387 96.8708C0.155484 95.6247 0.569165 94.4253 1.24084 93.3702L3.253 94.4137C2.98541 94.8444 2.75002 95.2944 2.54875 95.76C2.34934 96.1722 2.22443 96.6167 2.17985 97.0727Z" fill="#EF9152"/>
<path d="M9.92669 79.0315C11.9053 79.5027 13.2803 80.3779 14.1187 81.5896C14.9571 82.8013 15.0913 84.3833 14.6553 86.2009C14.2193 88.0185 13.3474 89.2975 12.0395 90.0044C10.7316 90.7112 9.12183 90.8458 7.1432 90.3409C5.16457 89.8361 3.78958 88.9946 2.98472 87.7492C2.17985 86.5038 2.01217 84.9892 2.44814 83.1716C2.88411 81.354 3.75605 80.0749 5.06396 79.3681C6.37186 78.6612 7.9816 78.5266 9.92669 79.0315ZM7.81392 87.7155C9.12183 88.0185 10.195 88.0185 10.9998 87.6819C11.4012 87.4966 11.7515 87.2158 12.0203 86.8638C12.2892 86.5119 12.4684 86.0995 12.5425 85.6623C13.0455 83.6764 11.9389 82.3301 9.28951 81.6569C6.64015 80.9837 5.03042 81.6906 4.56091 83.6765C4.42195 84.1009 4.38902 84.5531 4.46505 84.9933C4.54107 85.4335 4.7237 85.8482 4.99688 86.2009C5.53346 86.8741 6.47247 87.379 7.81392 87.7155Z" fill="#EF9152"/>
<path d="M21.329 66.8805L20.0546 69.9435L9.45718 71.2226V71.2899C10.9998 71.8284 12.1065 72.2323 12.7437 72.5016L18.0424 74.7568L17.137 76.9109L5.86882 72.1314L7.14319 69.102L17.6065 67.7893V67.722L14.4541 66.5439L9.15536 64.2551L10.0608 62.101L21.329 66.8805Z" fill="#EF9152"/>
<path d="M25.8563 58.9707L24.5149 61.1922L15.8961 56.0087L14.1858 58.8697L12.3413 57.759L17.1034 49.8154L18.9479 50.9262L17.2376 53.7872L25.8563 58.9707Z" fill="#EF9152"/>
<path d="M33.6702 47.9978L30.8532 46.9207L28.1033 50.4213L29.8471 52.9457L28.1368 55.1335L21.1277 44.1607L23.0728 41.6699L35.3806 45.81L33.6702 47.9978ZM28.7404 46.0456L24.3807 44.3963L23.5759 44.0597C24.0454 44.6656 25.1185 46.1466 26.7953 48.57L28.7404 46.0456Z" fill="#EF9152"/>
<path d="M33.8044 32.8849C33.4787 33.1838 33.2294 33.5569 33.0776 33.9729C32.9259 34.3888 32.8761 34.8353 32.9325 35.2747C33.0666 36.1835 33.6032 37.0923 34.5422 38.0347C36.4538 39.9869 38.1306 40.2226 39.5726 38.7752C40.3064 37.9927 40.9069 37.0944 41.35 36.1162L42.8592 37.6645C42.4081 38.7293 41.7464 39.6912 40.9141 40.4918C39.6397 41.726 38.2982 42.2982 36.8897 42.2084C35.4477 42.1075 34.0392 41.3333 32.6306 39.886C31.8013 39.0836 31.1599 38.1064 30.7526 37.0249C30.4198 36.0592 30.3847 35.0153 30.652 34.0293C30.9533 33.0096 31.5071 32.0832 32.2617 31.3366C33.1716 30.4966 34.245 29.8548 35.4141 29.4517L36.3196 31.5385C35.8508 31.7028 35.3917 31.8939 34.9446 32.1107C34.5183 32.2925 34.1311 32.5554 33.8044 32.8849Z" fill="#EF9152"/>
<path d="M49.9353 32.582L47.8896 34.1639L41.7525 26.1531L39.1366 28.1726L37.8287 26.456L45.1396 20.835L46.4475 22.5516L43.8317 24.5711L49.9353 32.582Z" fill="#EF9152"/>
<path d="M64.9259 23.3594L58.1852 15.9207H58.1181C59.0571 17.6373 59.6607 18.8154 59.929 19.3876L62.3436 24.5711L60.2644 25.5809L55.0328 14.507L58.2187 12.9924L64.8253 20.1954H64.8924L63.6515 10.4006L66.8375 8.88599L72.0691 19.9598L69.8893 21.0033L67.4076 15.7524C67.2734 15.5168 67.1728 15.2139 67.0051 14.911L65.8985 12.2856H65.8314L67.0722 22.2823L64.9259 23.3594Z" fill="#EF9152"/>
<path d="M82.9348 16.5939L76.2276 18.6135L72.6728 6.90013L79.4135 4.84692L80.0172 6.90013L75.7916 8.17917L76.5629 10.7709L80.5202 9.55919L81.1239 11.5787L77.1666 12.7905L78.0721 15.8198L82.3312 14.5407L82.9348 16.5939Z" fill="#EF9152"/>
<path d="M93.1298 0.201955L94.9743 0L96.9194 16.9978L95.1084 17.1998L93.1298 0.201955Z" fill="black"/>
<path d="M114.995 3.66885C114.562 3.62292 114.124 3.68489 113.721 3.84928C113.317 4.01367 112.96 4.2754 112.681 4.61131C112.078 5.31815 111.776 6.32792 111.675 7.64062C111.508 10.367 112.447 11.7807 114.459 11.9153C115.527 11.9618 116.595 11.8135 117.611 11.4778L117.477 13.6656C116.383 14.0104 115.234 14.1474 114.09 14.0695C112.312 13.9685 111.005 13.329 110.133 12.1846C109.261 11.0402 108.892 9.45821 109.026 7.43867C109.066 6.28308 109.376 5.15311 109.931 4.14008C110.413 3.25718 111.149 2.54135 112.044 2.08688C113.002 1.61865 114.068 1.42084 115.129 1.51467C116.37 1.59707 117.575 1.96566 118.651 2.59176L117.678 4.64497L116.337 4.00545C115.914 3.8109 115.459 3.69677 114.995 3.66885Z" fill="black"/>
<path d="M133.273 10.8045C132.837 12.7904 132.032 14.2378 130.824 15.0792C129.617 15.9207 128.108 16.19 126.297 15.8197C124.486 15.4495 123.145 14.608 122.407 13.329C121.669 12.0499 121.468 10.4006 121.87 8.41474C122.273 6.42886 123.111 5.01518 124.318 4.14004C125.526 3.26491 127.035 3.06295 128.879 3.46686C130.724 3.87077 131.998 4.67859 132.736 5.92397C133.474 7.16936 133.675 8.81865 133.273 10.8045ZM124.52 8.98695C124.251 10.3333 124.285 11.4104 124.654 12.1846C124.855 12.5815 125.15 12.9236 125.512 13.1815C125.874 13.4394 126.293 13.6055 126.733 13.6656C128.745 14.1031 130.053 12.9587 130.59 10.266C131.126 7.57327 130.422 5.99129 128.41 5.58738C127.984 5.46144 127.534 5.44475 127.1 5.53884C126.667 5.63294 126.264 5.83481 125.928 6.12593C125.291 6.69813 124.821 7.64059 124.52 8.98695Z" fill="black"/>
<path d="M145.748 21.8111L142.663 20.6331L141.019 10.0641H140.952C140.46 11.6573 140.092 12.7681 139.846 13.3964L137.8 18.7818L135.62 17.974L139.98 6.52991L143.032 7.67431L144.742 18.1423H144.775C145.278 16.6276 145.647 15.5505 145.882 14.9447L147.928 9.52556L150.108 10.367L145.748 21.8111Z" fill="black"/>
<path d="M153.797 26.0858L151.55 24.8068L156.379 15.9881L153.495 14.3725L154.534 12.4875L162.617 16.9642L161.543 18.8491L158.659 17.2335L153.797 26.0858Z" fill="black"/>
<path d="M164.998 33.5245L165.97 30.6298L162.382 28.0044L159.967 29.8556L157.687 28.2064L168.385 20.7677L170.934 22.6526L167.245 35.1738L164.998 33.5245ZM166.742 28.5093C167.647 25.8839 168.117 24.4029 168.251 24.0663L168.552 23.2585C167.982 23.7297 166.54 24.8404 164.159 26.6244L166.742 28.5093Z" fill="black"/>
<path d="M180.055 33.0868C179.748 32.7689 179.365 32.5343 178.943 32.4048C178.521 32.2753 178.073 32.2552 177.641 32.3463C176.769 32.5146 175.863 33.0532 174.958 34.0293C173.08 36.0152 172.912 37.6981 174.388 39.1118C175.198 39.8152 176.115 40.3835 177.104 40.7947L175.595 42.3767C174.528 41.9629 173.558 41.3327 172.744 40.5255C171.437 39.2801 170.833 37.9674 170.866 36.52C170.9 35.0727 171.671 33.659 173.046 32.178C173.811 31.3198 174.764 30.6516 175.83 30.2258C176.767 29.8499 177.796 29.7677 178.781 29.9902C179.822 30.2432 180.773 30.7789 181.531 31.5385C182.434 32.3983 183.123 33.459 183.543 34.6351L181.497 35.5776C181.312 35.1165 181.099 34.6669 180.86 34.2312C180.651 33.8114 180.379 33.4256 180.055 33.0868Z" fill="black"/>
<path d="M180.961 49.2768L179.284 47.2909L187.031 40.8621L184.918 38.304L186.595 36.924L192.464 44.0597L190.82 45.4397L188.708 42.8479L180.961 49.2768Z" fill="black"/>
<path d="M190.653 63.9859L197.796 56.9512V56.8838C196.119 57.8936 194.979 58.5331 194.409 58.8361L189.378 61.4615L188.305 59.3746L199.137 53.7535L200.781 56.8838L193.805 63.7839H193.839L203.531 62.202L205.14 65.3323L194.275 71.0206L193.168 68.8665L198.299 66.2074L199.137 65.7698L201.72 64.5581V64.4908L191.793 66.1064L190.653 63.9859Z" fill="black"/>
<path d="M198.031 81.8252L195.75 75.1271L207.32 71.189L209.601 77.8535L207.589 78.5603L206.146 74.3193L203.598 75.1944L204.939 79.1325L202.927 79.8057L201.619 75.8676L198.634 76.911L200.043 81.1184L198.031 81.8252Z" fill="black"/>
<path d="M214.698 91.4517L215 93.2692L198.131 95.861L197.863 94.0434L214.698 91.4517Z" fill="black"/>
<path d="M14.6982 121.452L15 123.269L-1.86868 125.861L-2.13696 124.043L14.6982 121.452Z" fill="black"/>
<path d="M212.049 113.498C212.069 113.062 211.985 112.626 211.804 112.228C211.623 111.83 211.351 111.481 211.009 111.21C210.271 110.637 209.265 110.368 207.957 110.301C205.241 110.234 203.866 111.21 203.799 113.263C203.81 114.339 203.991 115.407 204.336 116.427L202.189 116.359C201.783 115.274 201.601 114.118 201.653 112.96C201.686 111.176 202.29 109.83 203.397 108.921C204.503 108.012 206.046 107.574 208.058 107.642C209.213 107.645 210.35 107.922 211.378 108.45C212.282 108.904 213.029 109.619 213.524 110.503C214.012 111.447 214.243 112.503 214.195 113.566C214.144 114.814 213.812 116.034 213.223 117.134L211.143 116.225C211.372 115.789 211.574 115.339 211.747 114.878C211.911 114.435 212.013 113.97 212.049 113.498Z" fill="#EF9152"/>
<path d="M205.576 132.078C203.564 131.742 202.122 130.967 201.217 129.789C200.311 128.611 200.043 127.097 200.345 125.245C200.647 123.394 201.451 122.081 202.692 121.274C203.933 120.466 205.543 120.23 207.555 120.567C209.567 120.903 211.009 121.677 211.881 122.856C212.753 124.034 213.055 125.548 212.753 127.399C212.451 129.251 211.646 130.597 210.406 131.371C209.165 132.145 207.555 132.415 205.576 132.078ZM207.085 123.259C205.744 123.024 204.671 123.125 203.9 123.495C203.51 123.707 203.179 124.01 202.933 124.38C202.688 124.75 202.536 125.174 202.491 125.616C202.156 127.669 203.329 128.914 206.012 129.385C208.695 129.857 210.271 129.082 210.607 127.029C210.774 126.019 210.573 125.178 209.97 124.572C209.366 123.966 208.427 123.495 207.085 123.259Z" fill="#EF9152"/>
<path d="M195.08 145.003L196.119 141.873L206.582 139.82V139.752C205.006 139.348 203.9 139.012 203.229 138.776L197.796 136.925L198.534 134.737L210.137 138.675L209.064 141.772L198.701 143.859V143.926C200.211 144.33 201.284 144.667 201.921 144.869L207.387 146.753L206.616 148.975L195.08 145.003Z" fill="#EF9152"/>
<path d="M191.122 153.216L192.296 150.894L201.25 155.471L202.759 152.476L204.671 153.452L200.512 161.732L198.601 160.756L200.11 157.76L191.122 153.216Z" fill="#EF9152"/>
<path d="M184.113 164.727L187.031 165.603L189.479 161.9L187.567 159.544L189.11 157.221L196.924 167.656L195.147 170.281L182.571 167.05L184.113 164.727ZM189.177 166.309L193.638 167.656L194.442 167.925L190.921 163.65L189.177 166.309Z" fill="#EF9152"/>
<path d="M185.052 179.807C185.357 179.485 185.578 179.092 185.695 178.663C185.813 178.234 185.822 177.783 185.723 177.35C185.522 176.474 184.952 175.599 183.979 174.724C181.933 172.94 180.223 172.806 178.882 174.32C178.205 175.157 177.672 176.101 177.305 177.114L175.662 175.667C176.048 174.586 176.64 173.591 177.406 172.738C178.591 171.392 179.899 170.719 181.33 170.719C182.738 170.719 184.214 171.392 185.723 172.738C186.61 173.472 187.311 174.406 187.769 175.465C188.192 176.391 188.31 177.429 188.104 178.427C187.891 179.467 187.405 180.432 186.696 181.22C185.863 182.148 184.831 182.873 183.677 183.341L182.638 181.321C183.101 181.131 183.549 180.906 183.979 180.648C184.389 180.443 184.754 180.157 185.052 179.807Z" fill="#EF9152"/>
<path d="M168.955 181.288L170.9 179.537L177.574 187.111L180.055 184.889L181.497 186.505L174.589 192.631L173.18 191.015L175.662 188.827L168.955 181.288Z" fill="#EF9152"/>
<path d="M154.669 191.554L161.946 198.454H162.013C160.94 196.805 160.269 195.694 159.934 195.122L157.15 190.174L159.162 189.029L165.165 199.666L162.114 201.416L155.004 194.65H154.937L156.882 204.344L153.797 206.061L147.794 195.391L149.906 194.213L152.757 199.262L153.193 200.103L154.501 202.628H154.568L152.589 192.698L154.669 191.554Z" fill="#EF9152"/>
<path d="M137.196 199.598L143.769 197.074L148.129 208.518L141.556 211.042L140.785 209.056L144.943 207.441L143.971 204.95L140.114 206.431L139.376 204.445L143.233 202.964L142.093 200.002L137.968 201.584L137.196 199.598Z" fill="#EF9152"/>
<path d="M128.175 216.664L126.364 217L123.212 200.171L124.989 199.834L128.175 216.664Z" fill="black"/>
<path d="M106.209 214.779C106.648 214.784 107.081 214.683 107.473 214.484C107.864 214.284 108.201 213.993 108.456 213.634C108.959 212.894 109.227 211.85 109.194 210.537C109.149 207.8 108.109 206.454 106.075 206.498C105.001 206.542 103.944 206.782 102.956 207.205V205.017C104.018 204.566 105.157 204.326 106.309 204.311C108.087 204.311 109.462 204.815 110.401 205.893C111.34 206.97 111.876 208.484 111.91 210.504C111.939 211.659 111.722 212.806 111.273 213.87C110.85 214.801 110.161 215.586 109.294 216.125C108.375 216.652 107.335 216.931 106.276 216.933C105.037 216.919 103.814 216.644 102.688 216.125L103.492 214.004L104.867 214.543C105.298 214.696 105.752 214.776 106.209 214.779Z" fill="black"/>
<path d="M87.4286 208.922C87.6969 206.936 88.4012 205.455 89.5414 204.512C90.6816 203.57 92.1572 203.2 94.0353 203.469C95.9133 203.738 97.2212 204.445 98.0931 205.657C98.9651 206.869 99.1998 208.484 98.9315 210.504C98.6632 212.523 97.959 214.004 96.8188 214.947C95.6785 215.889 94.2029 216.192 92.3249 215.957C90.4469 215.721 89.1054 214.98 88.267 213.769C87.4286 212.557 87.1604 210.941 87.4286 208.922ZM96.2486 210.133C96.4499 208.753 96.3157 207.71 95.8797 206.97C95.4438 206.229 94.7395 205.758 93.7334 205.623C91.6877 205.32 90.4804 206.566 90.1115 209.292C89.7426 212.018 90.581 213.533 92.6267 213.802C93.0614 213.886 93.5096 213.865 93.935 213.743C94.3603 213.62 94.7508 213.398 95.0749 213.095C95.6785 212.456 96.081 211.48 96.2486 210.133Z" fill="black"/>
<path d="M74.1819 198.858L77.3007 199.834L79.7489 210.234H79.8159C80.1848 208.619 80.4531 207.508 80.6543 206.835L82.3311 201.315L84.5445 201.988L81.0232 213.735L77.9044 212.793L75.4562 202.459H75.3892C75.0203 204.008 74.7184 205.085 74.5508 205.724L72.874 211.278L70.6606 210.605L74.1819 198.858Z" fill="black"/>
<path d="M65.8314 195.189L68.1789 196.3L63.9869 205.455L67.0052 206.835L66.0997 208.821L57.7157 204.916L58.6211 202.964L61.6394 204.378L65.8314 195.189Z" fill="black"/>
<path d="M54.1273 188.558L53.356 191.52L57.1455 193.876L59.426 191.857L61.8071 193.338L51.6792 201.517L48.9963 199.834L51.7798 187.111L54.1273 188.558ZM52.7523 193.708C52.048 196.367 51.6456 197.882 51.5785 198.252C51.5115 198.622 51.3773 198.858 51.3103 199.06C51.8468 198.555 53.2218 197.31 55.4352 195.391L52.7523 193.708Z" fill="black"/>
<path d="M39.1702 190.073C39.4975 190.367 39.8934 190.573 40.3213 190.673C40.7491 190.773 41.1952 190.764 41.6183 190.645C42.4903 190.409 43.3287 189.804 44.1671 188.794C45.8886 186.684 45.9557 184.968 44.3683 183.644C43.5153 183.001 42.5639 182.5 41.5512 182.163L42.9262 180.48C44.0233 180.842 45.0459 181.401 45.9445 182.129C47.3195 183.274 48.0237 184.553 48.0573 186C48.0908 187.447 47.4871 188.928 46.2128 190.477C45.5158 191.399 44.6068 192.138 43.5634 192.631C42.6575 193.07 41.64 193.223 40.6458 193.068C39.589 192.896 38.6015 192.429 37.7952 191.722C36.8376 190.935 36.0792 189.931 35.5818 188.794L37.5604 187.683C37.7547 188.141 37.9905 188.581 38.2647 188.996C38.4914 189.412 38.7994 189.778 39.1702 190.073Z" fill="black"/>
<path d="M37.1245 173.984L38.9019 175.869L31.6245 182.836L33.9385 185.226L32.3623 186.74L25.9905 180.042L27.5667 178.528L29.8471 180.951L37.1245 173.984Z" fill="black"/>
<path d="M26.3929 160.015L19.7528 167.555H19.8198C21.396 166.444 22.5027 165.737 23.0393 165.401L27.902 162.405L29.1093 164.391L18.6796 170.786L16.8351 167.79L23.3076 160.453V160.385L13.7498 162.674L11.9053 159.645L22.3015 153.25L23.5759 155.337L18.6461 158.366L17.8412 158.837L15.3595 160.217V160.285L25.1521 157.962L26.3929 160.015Z" fill="black"/>
<path d="M17.7406 142.748L20.4906 149.244L9.25597 154.024L6.50601 147.528L8.4511 146.686L10.195 150.793L12.6767 149.749L11.0669 145.946L13.012 145.104L14.6218 148.908L17.5059 147.696L15.7955 143.59L17.7406 142.748Z" fill="black"/>
<mask id="mask0_54_652" style="mask-type:alpha" maskUnits="userSpaceOnUse" x="75" y="84" width="62" height="46">
<path fill-rule="evenodd" clip-rule="evenodd" d="M75.3125 84.0627H136.25V129.766H75.3125V84.0627Z" fill="white"/>
</mask>
<g mask="url(#mask0_54_652)">
<path fill-rule="evenodd" clip-rule="evenodd" d="M132.442 124.053C132.442 125.104 131.589 125.957 130.538 125.957H81.0252C79.9736 125.957 79.121 125.104 79.121 124.053V90.2125L104.676 108.456C105.338 108.928 106.225 108.928 106.886 108.456L132.442 90.2125V124.053ZM129.166 87.871L105.781 104.572L82.3969 87.871H129.166ZM130.538 84.0625H81.0254C77.8698 84.0625 75.3119 86.6204 75.3119 89.7759V124.052C75.3119 127.208 77.8698 129.766 81.0254 129.766H130.538C133.694 129.766 136.25 127.208 136.25 124.052V89.7759C136.25 86.6204 133.694 84.0625 130.538 84.0625V84.0625Z" fill="#EF9152"/>
</g>
</g>
<defs>
<clipPath id="clip0_54_652">
<rect width="215" height="217" fill="white"/>
</clipPath>
</defs>
</svg>
